<?xml version="1.0" encoding="UTF-8"?>
<svg width="265px" height="28px" viewBox="0 0 265 28" version="1.1" xmlns="http://www.w3.org/2000/svg" xmlns:xlink="http://www.w3.org/1999/xlink">
    <!-- Generator: Sketch 46.2 (44496) - http://www.bohemiancoding.com/sketch -->
    <title>Logo</title>
    <desc>Created with Sketch.</desc>
    <defs></defs>
    <g id="The-Siren" stroke="none" stroke-width="1" fill="none" fill-rule="evenodd">
        <g id="Anladim-Hocam" transform="translate(-826.000000, -71.000000)">
            <g id="Header" transform="translate(40.000000, 30.000000)">
                <g id="Logo" transform="translate(763.000000, 28.000000)">
                    <text id="Anladım" font-family="ArialRoundedMTBold, Arial Rounded MT Bold" font-size="36" font-weight="normal" fill="#E74C3C">
                        <tspan x="22" y="40">Anladım</tspan>
                    </text>
                    <path d="M173.068359,16.9550781 L173.068359,24.3378906 L184.335938,24.3378906 L184.335938,16.9550781 C184.335938,15.9003854 184.57324,15.1093776 185.047852,14.5820312 C185.522463,14.0546849 186.146481,13.7910156 186.919922,13.7910156 C187.705082,13.7910156 188.340818,14.0517552 188.827148,14.5732422 C189.313479,15.0947292 189.556641,15.8886665 189.556641,16.9550781 L189.556641,37.2578125 C189.556641,38.3242241 189.310549,39.1210911 188.818359,39.6484375 C188.326169,40.1757839 187.693363,40.4394531 186.919922,40.4394531 C186.134762,40.4394531 185.507815,40.1728542 185.039062,39.6396484 C184.57031,39.1064426 184.335938,38.3125053 184.335938,37.2578125 L184.335938,28.5917969 L173.068359,28.5917969 L173.068359,37.2578125 C173.068359,38.3242241 172.822268,39.1210911 172.330078,39.6484375 C171.837888,40.1757839 171.205082,40.4394531 170.431641,40.4394531 C169.64648,40.4394531 169.019534,40.1728542 168.550781,39.6396484 C168.082029,39.1064426 167.847656,38.3125053 167.847656,37.2578125 L167.847656,16.9550781 C167.847656,15.9003854 168.079099,15.1093776 168.541992,14.5820312 C169.004885,14.0546849 169.634762,13.7910156 170.431641,13.7910156 C171.216801,13.7910156 171.852537,14.0517552 172.338867,14.5732422 C172.825198,15.0947292 173.068359,15.8886665 173.068359,16.9550781 Z M212.794922,30.6835938 C212.794922,32.1132884 212.572268,33.4316346 212.126953,34.6386719 C211.681638,35.8457092 211.037114,36.8828082 210.193359,37.75 C209.349605,38.6171918 208.341803,39.2822242 207.169922,39.7451172 C205.998041,40.2080101 204.679695,40.4394531 203.214844,40.4394531 C201.761711,40.4394531 200.455084,40.2050805 199.294922,39.7363281 C198.13476,39.2675758 197.129887,38.5966841 196.280273,37.7236328 C195.43066,36.8505816 194.786135,35.8193419 194.34668,34.6298828 C193.907224,33.4404237 193.6875,32.1250072 193.6875,30.6835938 C193.6875,29.2304615 193.910154,27.9003967 194.355469,26.6933594 C194.800783,25.4863221 195.439449,24.4550824 196.271484,23.5996094 C197.10352,22.7441363 198.111322,22.0849633 199.294922,21.6220703 C200.478522,21.1591774 201.785149,20.9277344 203.214844,20.9277344 C204.667976,20.9277344 205.986322,21.162107 207.169922,21.6308594 C208.353522,22.0996117 209.367183,22.7675738 210.210938,23.6347656 C211.054692,24.5019575 211.696287,25.5331971 212.135742,26.7285156 C212.575198,27.9238341 212.794922,29.2421803 212.794922,30.6835938 Z M207.978516,30.6835938 C207.978516,28.7265527 207.547856,27.2031304 206.686523,26.1132812 C205.825191,25.0234321 204.667976,24.4785156 203.214844,24.4785156 C202.277339,24.4785156 201.451175,24.7216773 200.736328,25.2080078 C200.021481,25.6943384 199.470705,26.4121046 199.083984,27.3613281 C198.697264,28.3105516 198.503906,29.4179624 198.503906,30.6835938 C198.503906,31.9375063 198.694334,33.0331984 199.075195,33.9707031 C199.456057,34.9082078 200.000973,35.6259741 200.709961,36.1240234 C201.418949,36.6220728 202.253901,36.8710938 203.214844,36.8710938 C204.667976,36.8710938 205.825191,36.3232477 206.686523,35.2275391 C207.547856,34.1318305 207.978516,32.6171972 207.978516,30.6835938 Z M233.783203,34.4980469 C233.783203,35.0957061 233.604494,35.7343716 233.24707,36.4140625 C232.889647,37.0937534 232.34473,37.7412079 231.612305,38.3564453 C230.879879,38.9716828 229.957037,39.466795 228.84375,39.8417969 C227.730463,40.2167988 226.476569,40.4042969 225.082031,40.4042969 C222.117173,40.4042969 219.802743,39.5400477 218.138672,37.8115234 C216.474601,36.0829992 215.642578,33.7656395 215.642578,30.859375 C215.642578,28.8906152 216.023434,27.1503982 216.785156,25.6386719 C217.546879,24.1269456 218.64843,22.9580119 220.089844,22.1318359 C221.531257,21.3056599 223.253896,20.8925781 225.257812,20.8925781 C226.500006,20.8925781 227.639643,21.0742169 228.676758,21.4375 C229.713872,21.8007831 230.59277,22.2695284 231.313477,22.84375 C232.034183,23.4179716 232.584959,24.0302702 232.96582,24.6806641 C233.346682,25.3310579 233.537109,25.9374972 233.537109,26.5 C233.537109,27.0742216 233.323244,27.5605449 232.895508,27.9589844 C232.467771,28.3574239 231.949222,28.5566406 231.339844,28.5566406 C230.941404,28.5566406 230.610353,28.4541026 230.34668,28.2490234 C230.083006,28.0439443 229.787111,27.7128929 229.458984,27.2558594 C228.873044,26.3652299 228.260745,25.6972679 227.62207,25.2519531 C226.983395,24.8066384 226.17188,24.5839844 225.1875,24.5839844 C223.769524,24.5839844 222.626957,25.1376898 221.759766,26.2451172 C220.892574,27.3525446 220.458984,28.8671779 220.458984,30.7890625 C220.458984,31.6914108 220.570311,32.520504 220.792969,33.2763672 C221.015626,34.0322303 221.337889,34.6767551 221.759766,35.2099609 C222.181643,35.7431667 222.691403,36.1474596 223.289062,36.4228516 C223.886722,36.6982436 224.542965,36.8359375 225.257812,36.8359375 C226.218755,36.8359375 227.041989,36.6132835 227.727539,36.1679688 C228.413089,35.722654 229.019529,35.0429733 229.546875,34.1289062 C229.839845,33.5898411 230.156248,33.1679703 230.496094,32.8632812 C230.835939,32.5585922 231.251951,32.40625 231.744141,32.40625 C232.330081,32.40625 232.816404,32.628904 233.203125,33.0742188 C233.589846,33.5195335 233.783203,33.9941381 233.783203,34.4980469 Z M250.095703,37.7324219 C248.935541,38.6347701 247.813482,39.3115212 246.729492,39.7626953 C245.645502,40.2138694 244.429694,40.4394531 243.082031,40.4394531 C241.851556,40.4394531 240.770512,40.1962915 239.838867,39.7099609 C238.907222,39.2236304 238.189456,38.5644573 237.685547,37.7324219 C237.181638,36.9003865 236.929688,35.9980517 236.929688,35.0253906 C236.929688,33.7128841 237.345699,32.5937546 238.177734,31.6679688 C239.00977,30.7421829 240.152336,30.1210953 241.605469,29.8046875 C241.910158,29.7343746 242.66601,29.5761731 243.873047,29.3300781 C245.080084,29.0839831 246.114254,28.8583995 246.975586,28.6533203 C247.836918,28.4482412 248.771479,28.1992202 249.779297,27.90625 C249.720703,26.6406187 249.465823,25.711917 249.014648,25.1201172 C248.563474,24.5283174 247.628913,24.2324219 246.210938,24.2324219 C244.992181,24.2324219 244.075198,24.4023421 243.459961,24.7421875 C242.844723,25.0820329 242.317385,25.5917935 241.87793,26.2714844 C241.438474,26.9511753 241.127931,27.399413 240.946289,27.6162109 C240.764648,27.8330089 240.375003,27.9414062 239.777344,27.9414062 C239.238279,27.9414062 238.772463,27.7685564 238.379883,27.4228516 C237.987303,27.0771467 237.791016,26.6347683 237.791016,26.0957031 C237.791016,25.2519489 238.089841,24.4316446 238.6875,23.6347656 C239.285159,22.8378866 240.216791,22.1816432 241.482422,21.6660156 C242.748053,21.150388 244.324209,20.8925781 246.210938,20.8925781 C248.320323,20.8925781 249.97851,21.1415991 251.185547,21.6396484 C252.392584,22.1376978 253.245115,22.9257759 253.743164,24.0039062 C254.241213,25.0820366 254.490234,26.5117098 254.490234,28.2929688 C254.490234,29.4179744 254.487305,30.3730429 254.481445,31.1582031 C254.475586,31.9433633 254.466797,32.8164014 254.455078,33.7773438 C254.455078,34.679692 254.604491,35.6201123 254.90332,36.5986328 C255.20215,37.5771533 255.351562,38.2070298 255.351562,38.4882812 C255.351562,38.9804712 255.12012,39.4287089 254.657227,39.8330078 C254.194334,40.2373067 253.669925,40.4394531 253.083984,40.4394531 C252.591794,40.4394531 252.105471,40.2080101 251.625,39.7451172 C251.144529,39.2822242 250.634768,38.6113325 250.095703,37.7324219 Z M249.779297,30.7890625 C249.076168,31.0468763 248.053718,31.3193345 246.711914,31.6064453 C245.37011,31.8935561 244.441409,32.1044915 243.925781,32.2392578 C243.410154,32.3740241 242.917971,32.6376933 242.449219,33.0302734 C241.980466,33.4228535 241.746094,33.9706996 241.746094,34.6738281 C241.746094,35.4003943 242.021482,36.0185521 242.572266,36.5283203 C243.12305,37.0380885 243.843746,37.2929688 244.734375,37.2929688 C245.683598,37.2929688 246.559566,37.084963 247.362305,36.6689453 C248.165043,36.2529276 248.753904,35.7168002 249.128906,35.0605469 C249.562502,34.3339807 249.779297,33.1386802 249.779297,31.4746094 L249.779297,30.7890625 Z M275.320312,31.0351562 L275.320312,37.4160156 C275.320312,38.4238332 275.091799,39.179685 274.634766,39.6835938 C274.177732,40.1875025 273.574223,40.4394531 272.824219,40.4394531 C272.097653,40.4394531 271.508791,40.1875025 271.057617,39.6835938 C270.606443,39.179685 270.380859,38.4238332 270.380859,37.4160156 L270.380859,29.7695312 C270.380859,28.562494 270.339844,27.6250033 270.257812,26.9570312 C270.175781,26.2890592 269.953127,25.7412131 269.589844,25.3134766 C269.226561,24.88574 268.652348,24.671875 267.867188,24.671875 C266.296867,24.671875 265.262698,25.2109321 264.764648,26.2890625 C264.266599,27.3671929 264.017578,28.9140524 264.017578,30.9296875 L264.017578,37.4160156 C264.017578,38.4121144 263.791994,39.1650365 263.34082,39.6748047 C262.889646,40.1845729 262.294926,40.4394531 261.556641,40.4394531 C260.830074,40.4394531 260.235354,40.1845729 259.772461,39.6748047 C259.309568,39.1650365 259.078125,38.4121144 259.078125,37.4160156 L259.078125,23.6875 C259.078125,22.7851517 259.286131,22.0996117 259.702148,21.6308594 C260.118166,21.162107 260.666012,20.9277344 261.345703,20.9277344 C262.001956,20.9277344 262.549802,21.1474587 262.989258,21.5869141 C263.428713,22.0263694 263.648438,22.6328086 263.648438,23.40625 L263.648438,23.8632812 C264.480473,22.8671825 265.371089,22.134768 266.320312,21.6660156 C267.269536,21.1972633 268.324213,20.9628906 269.484375,20.9628906 C270.691412,20.9628906 271.728511,21.2031226 272.595703,21.6835938 C273.462895,22.1640649 274.177732,22.8906201 274.740234,23.8632812 C275.548832,22.8789013 276.416011,22.1494164 277.341797,21.6748047 C278.267583,21.2001929 279.292963,20.9628906 280.417969,20.9628906 C281.730475,20.9628906 282.861323,21.2207005 283.810547,21.7363281 C284.75977,22.2519557 285.468748,22.9902296 285.9375,23.9511719 C286.347658,24.8183637 286.552734,26.1835844 286.552734,28.046875 L286.552734,37.4160156 C286.552734,38.4238332 286.324221,39.179685 285.867188,39.6835938 C285.410154,40.1875025 284.806644,40.4394531 284.056641,40.4394531 C283.330074,40.4394531 282.735354,40.1845729 282.272461,39.6748047 C281.809568,39.1650365 281.578125,38.4121144 281.578125,37.4160156 L281.578125,29.3476562 C281.578125,28.3164011 281.53418,27.4902375 281.446289,26.8691406 C281.358398,26.2480438 281.121096,25.7265646 280.734375,25.3046875 C280.347654,24.8828104 279.761723,24.671875 278.976562,24.671875 C278.343747,24.671875 277.743167,24.8593731 277.174805,25.234375 C276.606442,25.6093769 276.164064,26.1132781 275.847656,26.7460938 C275.496092,27.5546915 275.320312,28.9843647 275.320312,31.0351562 Z" id="Hocam" stroke="#E74C3C" stroke-width="1"></path>
                </g>
            </g>
        </g>
    </g>
</svg>